Coordinates
version=1
nRows=10
nColumns=40
inDegrees=yes

Units are S.I. units (second, meters, Newtons, ...)
Angles are in degrees.

endheader
time	pelvis_tilt	pelvis_list	pelvis_rotation	pelvis_tx	pelvis_ty	pelvis_tz	hip_flexion_r	hip_adduction_r	hip_rotation_r	knee_angle_r	knee_angle_r_beta	ankle_angle_r	subtalar_angle_r	mtp_angle_r	hip_flexion_l	hip_adduction_l	hip_rotation_l	knee_angle_l	knee_angle_l_beta	ankle_angle_l	subtalar_angle_l	mtp_angle_l	lumbar_extension	lumbar_bending	lumbar_rotation	arm_flex_r	arm_add_r	arm_rot_r	elbow_flex_r	pro_sup_r	wrist_flex_r	wrist_dev_r	arm_flex_l	arm_add_l	arm_rot_l	elbow_flex_l	pro_sup_l	wrist_flex_l	wrist_dev_l
     17.03778571	     -2.60863714	     -5.42874454	      7.46491728	      1.00696262	      0.92314354	      0.46857522	      0.15645805	      3.89131083	    -16.93509048	     11.68872454	     11.68872454	     15.76378641	      0.44589018	     -6.55562307	     30.32608853	     -8.31938402	     -0.53036859	     24.31015579	     24.31015579	      6.56041459	    -10.35100305	      7.12004433	     -9.02613356	      4.92564966	      4.59554112	     29.44453625	    -15.14491426	      4.96575242	     73.62080193	     44.47540781	      0.00000000	      0.00000000	     -6.29134635	     -7.94020469	     -8.22281953	     30.66214787	     46.15109731	      0.00000000	      0.00000000
     17.05057143	     -2.65055856	     -5.41461404	      7.29449347	      1.00855020	      0.92212214	      0.46738203	     -0.38235871	      3.86739491	    -16.65676111	     11.50050910	     11.50050910	     16.16430185	      0.62689720	     -6.58737585	     29.86622533	     -8.28365397	     -0.85001857	     24.78154473	     24.78154473	      6.30836040	    -10.90896685	      7.11985615	     -8.89040619	      4.73770352	      4.82019263	     28.94382799	    -14.41667093	      5.34099697	     73.55080523	     44.46485839	      0.00000000	      0.00000000	     -5.55454649	     -8.22964640	     -8.26947651	     31.11167238	     46.16936344	      0.00000000	      0.00000000
     17.06335714	     -2.56445820	     -5.43471233	      7.25718910	      1.01033334	      0.92145609	      0.46569318	     -1.23309342	      3.92275862	    -16.59599225	     10.99556236	     10.99556236	     16.48356266	      0.94575560	     -5.94204986	     29.13294985	     -8.07473034	     -0.44991412	     24.89144874	     24.89144874	      5.64819247	    -12.21734381	      6.63350744	     -8.85069921	      4.61626551	      5.05904757	     28.47857372	    -14.37586601	      5.74265792	     73.48143013	     44.46888680	      0.00000000	      0.00000000	     -5.40907881	     -8.39647645	     -8.50513367	     32.63051563	     46.19841489	      0.00000000	      0.00000000
     17.07614286	     -2.69627870	     -5.41647229	      7.18312980	      1.01189322	      0.92036700	      0.46398177	     -1.36104889	      3.75699622	    -16.44315824	     11.46847322	     11.46847322	     17.28214116	      0.89009605	     -4.85307313	     28.72759180	     -7.92600434	     -0.43866610	     25.06971824	     25.06971824	      4.89029106	    -12.89151008	      5.09871892	     -8.62100280	      4.41446883	      4.82191386	     28.09659649	    -14.00547377	      6.46057985	     73.45035285	     44.48453759	      0.00000000	      0.00000000	     -5.58643543	     -8.62782055	     -8.78096686	     34.48008785	     46.21922366	      0.00000000	      0.00000000
     17.08892857	     -2.74125693	     -5.40616751	      7.18550318	      1.01338408	      0.91961437	      0.46207887	     -1.72835771	      3.65022773	    -16.36965844	     11.58153085	     11.58153085	     17.49577303	      0.82657564	     -4.85630773	     28.39155071	     -7.79757756	     -0.38713137	     25.45583975	     25.45583975	      4.94554721	    -13.06806875	      4.96907980	     -8.48725093	      4.25326482	      4.74526967	     27.55832859	    -13.60383229	      6.71113526	     73.29639470	     44.48087056	      0.00000000	      0.00000000	     -4.98471912	     -8.82256916	     -8.80111615	     34.73596550	     46.23053711	      0.00000000	      0.00000000
     17.10171429	     -2.81972185	     -5.35180990	      7.17052564	      1.01469867	      0.91895375	      0.46003486	     -1.78896619	      3.41815166	    -16.13934905	     12.22332262	     12.22332262	     17.89790523	      0.34919642	     -4.42438127	     28.16768527	     -7.58627467	     -0.18323538	     25.89011744	     25.89011744	      4.91344570	    -13.57836646	      4.55289925	     -8.35629310	      4.04478878	      4.88045131	     26.94404906	    -13.58367594	      7.15681977	     72.82334528	     44.49271852	      0.00000000	      0.00000000	     -4.37604169	     -9.00134427	     -8.87051131	     35.36632597	     46.24420570	      0.00000000	      0.00000000
     17.11450000	     -2.81447397	     -5.31295178	      7.26208830	      1.01596993	      0.91871950	      0.45776146	     -2.08671595	      3.23493958	    -16.11816184	     12.54229819	     12.54229819	     17.98300676	      0.16034015	     -4.36202674	     27.87971768	     -7.39938161	     -0.00688806	     26.27113600	     26.27113600	      5.17402755	    -13.69791285	      4.32168393	     -8.34291830	      3.88408007	      4.67946382	     26.24294517	    -13.22718763	      7.44222716	     72.60868884	     44.48920605	      0.00000000	      0.00000000	     -3.71731680	     -9.20213024	     -8.88882245	     35.66480185	     46.25597020	      0.00000000	      0.00000000
     17.12728571	     -2.93367709	     -5.21651440	      7.25843334	      1.01681714	      0.91838524	      0.45547467	     -1.70188381	      2.82654170	    -15.84021456	     13.89929953	     13.89929953	     18.35578660	     -0.67290375	     -3.98848708	     27.79657726	     -7.17968989	      0.06381413	     26.72290619	     26.72290619	      5.42976462	    -13.87620761	      3.87720372	     -8.26422616	      3.64841798	      4.79244901	     25.55249878	    -13.32970890	      8.01073112	     71.99454730	     44.49882969	      0.00000000	      0.00000000	     -3.00476056	     -9.36762009	     -8.90676190	     36.28485250	     46.26543757	      0.00000000	      0.00000000
     17.14007143	     -2.99805275	     -5.16301895	      7.31137226	      1.01768973	      0.91845565	      0.45303236	     -1.42132121	      2.48475293	    -15.63529415	     15.14185400	     15.14185400	     18.57325120	     -1.39317695	     -3.49129575	     27.62132267	     -7.00791355	      0.10494328	     27.06613297	     27.06613297	      5.80334420	    -13.88424161	      3.47022015	     -8.23586553	      3.48802984	      4.67308427	     24.83440374	    -13.29131715	      8.72731580	     71.34050785	     44.50832111	      0.00000000	      0.00000000	     -2.34430388	     -9.57684758	     -8.85397900	     36.78485739	     46.26398537	      0.00000000	      0.00000000
     17.15285714	     -2.83644258	     -5.19991298	      7.47117362	      1.01861582	      0.91914034	      0.45042080	     -1.54806043	      2.29230051	    -15.68637015	     16.01351730	     16.01351730	     18.42362640	     -1.71992346	     -3.49292267	     27.18464035	     -6.91503944	      0.30398429	     27.31225237	     27.31225237	      6.25541354	    -13.84844675	      3.21723222	     -8.46132558	      3.47055014	      4.38712772	     23.92193659	    -13.03269532	      9.06496183	     70.94062908	     44.50837577	      0.00000000	      0.00000000	     -1.55934949	     -9.76408331	     -8.85113379	     37.10375397	     46.27474203	      0.00000000	      0.00000000
